<svg xmlns="http://www.w3.org/2000/svg" width="1440" height="900"><path d="M763,627L961,429L744,538Z" fill="#f2f9da" stroke="#f2f9da" stroke-width="1.51"/><path d="M763,627L985,734L961,429Z" fill="#e7f5ef" stroke="#e7f5ef" stroke-width="1.51"/><path d="M985,734L1132,713L961,429Z" fill="#d6eef5" stroke="#d6eef5" stroke-width="1.51"/><path d="M961,429L727,240L744,538Z" fill="#faf8c5" stroke="#faf8c5" stroke-width="1.51"/><path d="M1188,169L884,225L961,429Z" fill="#ebe5c1" stroke="#ebe5c1" stroke-width="1.51"/><path d="M884,225L727,240L961,429Z" fill="#f7edbc" stroke="#f7edbc" stroke-width="1.51"/><path d="M744,538L496,532L763,627Z" fill="#f6f7cd" stroke="#f6f7cd" stroke-width="1.51"/><path d="M763,627L749,937L985,734Z" fill="#d4ebe4" stroke="#d4ebe4" stroke-width="1.51"/><path d="M727,240L496,532L744,538Z" fill="#fff9b6" stroke="#fff9b6" stroke-width="1.51"/><path d="M426,758L749,937L763,627Z" fill="#dce8ce" stroke="#dce8ce" stroke-width="1.51"/><path d="M985,734L1175,990L1132,713Z" fill="#b1dbea" stroke="#b1dbea" stroke-width="1.51"/><path d="M749,937L948,960L985,734Z" fill="#bedde5" stroke="#bedde5" stroke-width="1.51"/><path d="M1132,713L1287,420L961,429Z" fill="#d6ece2" stroke="#d6ece2" stroke-width="1.51"/><path d="M1287,420L1188,169L961,429Z" fill="#dce3c6" stroke="#dce3c6" stroke-width="1.51"/><path d="M486,-98L463,223L727,240Z" fill="#ffce81" stroke="#ffce81" stroke-width="1.51"/><path d="M1132,713L1389,520L1287,420Z" fill="#c2dee0" stroke="#c2dee0" stroke-width="1.51"/><path d="M1287,420L1459,179L1188,169Z" fill="#cccbb3" stroke="#cccbb3" stroke-width="1.51"/><path d="M1376,674L1389,520L1132,713Z" fill="#b4d7e9" stroke="#b4d7e9" stroke-width="1.51"/><path d="M1175,990L1376,674L1132,713Z" fill="#a4d3e5" stroke="#a4d3e5" stroke-width="1.51"/><path d="M496,532L426,758L763,627Z" fill="#f0edcb" stroke="#f0edcb" stroke-width="1.51"/><path d="M948,960L1175,990L985,734Z" fill="#acd4e6" stroke="#acd4e6" stroke-width="1.51"/><path d="M1042,1230L1175,990L948,960Z" fill="#93b9d9" stroke="#93b9d9" stroke-width="1.51"/><path d="M496,532L263,630L426,758Z" fill="#f2dcb9" stroke="#f2dcb9" stroke-width="1.51"/><path d="M727,240L463,223L496,532Z" fill="#ffea9e" stroke="#ffea9e" stroke-width="1.51"/><path d="M795,-37L727,240L884,225Z" fill="#fdd9a0" stroke="#fdd9a0" stroke-width="1.51"/><path d="M1188,169L968,-7L884,225Z" fill="#efd0ad" stroke="#efd0ad" stroke-width="1.51"/><path d="M749,937L763,1229L948,960Z" fill="#afc6d0" stroke="#afc6d0" stroke-width="1.51"/><path d="M426,758L446,946L749,937Z" fill="#cfd5bc" stroke="#cfd5bc" stroke-width="1.51"/><path d="M968,-7L795,-37L884,225Z" fill="#f9cba0" stroke="#f9cba0" stroke-width="1.51"/><path d="M1188,169L1179,-4L968,-7Z" fill="#e5bea2" stroke="#e5bea2" stroke-width="1.51"/><path d="M968,-7L941,-213L795,-37Z" fill="#f7b194" stroke="#f7b194" stroke-width="1.51"/><path d="M1459,179L1179,-4L1188,169Z" fill="#d3baa2" stroke="#d3baa2" stroke-width="1.51"/><path d="M426,758L274,998L446,946Z" fill="#cfc2ab" stroke="#cfc2ab" stroke-width="1.51"/><path d="M247,413L263,630L496,532Z" fill="#fcdba3" stroke="#fcdba3" stroke-width="1.51"/><path d="M463,223L247,413L496,532Z" fill="#ffdf95" stroke="#ffdf95" stroke-width="1.51"/><path d="M1635,254L1459,179L1389,520Z" fill="#b9bbb1" stroke="#b9bbb1" stroke-width="1.51"/><path d="M1389,520L1459,179L1287,420Z" fill="#c2cfbf" stroke="#c2cfbf" stroke-width="1.51"/><path d="M467,1188L763,1229L749,937Z" fill="#afb7b7" stroke="#afb7b7" stroke-width="1.51"/><path d="M763,1229L1042,1230L948,960Z" fill="#9ab3d4" stroke="#9ab3d4" stroke-width="1.51"/><path d="M1175,990L1545,937L1376,674Z" fill="#88bcd9" stroke="#88bcd9" stroke-width="1.51"/><path d="M263,630L274,998L426,758Z" fill="#dfc9ab" stroke="#dfc9ab" stroke-width="1.51"/><path d="M446,946L467,1188L749,937Z" fill="#bcc0b4" stroke="#bcc0b4" stroke-width="1.51"/><path d="M-17,877L274,998L263,630Z" fill="#dbb29b" stroke="#dbb29b" stroke-width="1.51"/><path d="M1294,1262L1545,937L1175,990Z" fill="#6fa2cc" stroke="#6fa2cc" stroke-width="1.51"/><path d="M1376,674L1732,436L1389,520Z" fill="#abc3d1" stroke="#abc3d1" stroke-width="1.51"/><path d="M297,1156L467,1188L446,946Z" fill="#b6a69f" stroke="#b6a69f" stroke-width="1.51"/><path d="M795,-37L486,-98L727,240Z" fill="#ffc784" stroke="#ffc784" stroke-width="1.51"/><path d="M463,223L160,168L247,413Z" fill="#fec879" stroke="#fec879" stroke-width="1.51"/><path d="M732,-317L486,-98L795,-37Z" fill="#faa973" stroke="#faa973" stroke-width="1.51"/><path d="M1179,-4L941,-213L968,-7Z" fill="#edad98" stroke="#edad98" stroke-width="1.51"/><path d="M1228,-314L941,-213L1179,-4Z" fill="#de9a8b" stroke="#de9a8b" stroke-width="1.51"/><path d="M1459,179L1432,-95L1179,-4Z" fill="#cba494" stroke="#cba494" stroke-width="1.51"/><path d="M1732,436L1635,254L1389,520Z" fill="#aeb6b7" stroke="#aeb6b7" stroke-width="1.51"/><path d="M1166,1416L1294,1262L1042,1230Z" fill="#7487c1" stroke="#7487c1" stroke-width="1.51"/><path d="M1042,1230L1294,1262L1175,990Z" fill="#7aa2cd" stroke="#7aa2cd" stroke-width="1.51"/><path d="M247,413L48,610L263,630Z" fill="#fbc79a" stroke="#fbc79a" stroke-width="1.51"/><path d="M242,-78L160,168L463,223Z" fill="#fdb062" stroke="#fdb062" stroke-width="1.51"/><path d="M763,1229L774,1383L1042,1230Z" fill="#9898c0" stroke="#9898c0" stroke-width="1.51"/><path d="M555,1431L774,1383L763,1229Z" fill="#a293ab" stroke="#a293ab" stroke-width="1.51"/><path d="M15,396L48,610L247,413Z" fill="#ffbe87" stroke="#ffbe87" stroke-width="1.51"/><path d="M467,1188L555,1431L763,1229Z" fill="#a593a4" stroke="#a593a4" stroke-width="1.51"/><path d="M274,998L297,1156L446,946Z" fill="#bfaa9c" stroke="#bfaa9c" stroke-width="1.51"/><path d="M56,1270L297,1156L274,998Z" fill="#b38989" stroke="#b38989" stroke-width="1.51"/><path d="M1668,37L1432,-95L1459,179Z" fill="#bc928d" stroke="#bc928d" stroke-width="1.51"/><path d="M1797,720L1732,436L1376,674Z" fill="#98aed3" stroke="#98aed3" stroke-width="1.51"/><path d="M486,-98L242,-78L463,223Z" fill="#fdac66" stroke="#fdac66" stroke-width="1.51"/><path d="M941,-213L732,-317L795,-37Z" fill="#f4a481" stroke="#f4a481" stroke-width="1.51"/><path d="M1228,-314L732,-317L941,-213Z" fill="#e39589" stroke="#e39589" stroke-width="1.51"/><path d="M160,168L15,396L247,413Z" fill="#feb975" stroke="#feb975" stroke-width="1.51"/><path d="M774,1383L1050,1428L1042,1230Z" fill="#8d8fc6" stroke="#8d8fc6" stroke-width="1.51"/><path d="M1545,937L1797,720L1376,674Z" fill="#82acd2" stroke="#82acd2" stroke-width="1.51"/><path d="M1493,1245L1661,1009L1545,937Z" fill="#5687be" stroke="#5687be" stroke-width="1.51"/><path d="M225,-259L242,-78L486,-98Z" fill="#f58950" stroke="#f58950" stroke-width="1.51"/><path d="M160,168L-31,218L15,396Z" fill="#fca666" stroke="#fca666" stroke-width="1.51"/><path d="M1050,1428L1166,1416L1042,1230Z" fill="#7d88c2" stroke="#7d88c2" stroke-width="1.51"/><path d="M1294,1262L1493,1245L1545,937Z" fill="#5889bf" stroke="#5889bf" stroke-width="1.51"/><path d="M1453,1480L1493,1245L1294,1262Z" fill="#546db2" stroke="#546db2" stroke-width="1.51"/><path d="M1661,1009L1797,720L1545,937Z" fill="#6a92c4" stroke="#6a92c4" stroke-width="1.51"/><path d="M1432,-95L1228,-314L1179,-4Z" fill="#d09289" stroke="#d09289" stroke-width="1.51"/><path d="M1432,-95L1418,-357L1228,-314Z" fill="#bf7b7b" stroke="#bf7b7b" stroke-width="1.51"/><path d="M1635,254L1668,37L1459,179Z" fill="#b49b96" stroke="#b49b96" stroke-width="1.51"/><path d="M1965,284L1668,37L1635,254Z" fill="#a98691" stroke="#a98691" stroke-width="1.51"/><path d="M1965,284L1635,254L1732,436Z" fill="#a793a1" stroke="#a793a1" stroke-width="1.51"/><path d="M774,1383L555,1431L1050,1428Z" fill="#9c93b5" stroke="#9c93b5" stroke-width="1.51"/><path d="M203,1514L555,1431L467,1188Z" fill="#a67c8e" stroke="#a67c8e" stroke-width="1.51"/><path d="M48,610L-17,877L263,630Z" fill="#ecb39b" stroke="#ecb39b" stroke-width="1.51"/><path d="M297,1156L203,1514L467,1188Z" fill="#a87988" stroke="#a87988" stroke-width="1.51"/><path d="M-256,762L-17,877L48,610Z" fill="#e09c8d" stroke="#e09c8d" stroke-width="1.51"/><path d="M15,396L-197,381L48,610Z" fill="#fbad7a" stroke="#fbad7a" stroke-width="1.51"/><path d="M-98,0L-31,218L160,168Z" fill="#f88e52" stroke="#f88e52" stroke-width="1.51"/><path d="M1797,720L1869,719L1732,436Z" fill="#9095c9" stroke="#9095c9" stroke-width="1.51"/><path d="M1912,959L1869,719L1797,720Z" fill="#7383bf" stroke="#7383bf" stroke-width="1.51"/><path d="M1912,959L1797,720L1661,1009Z" fill="#657fbb" stroke="#657fbb" stroke-width="1.51"/><path d="M242,-78L-98,0L160,168Z" fill="#f9894e" stroke="#f9894e" stroke-width="1.51"/><path d="M732,-317L429,-337L486,-98Z" fill="#f0935e" stroke="#f0935e" stroke-width="1.51"/><path d="M1418,-357L429,-337L732,-317Z" fill="#e1937f" stroke="#e1937f" stroke-width="1.51"/><path d="M429,-337L225,-259L486,-98Z" fill="#ef844e" stroke="#ef844e" stroke-width="1.51"/><path d="M1788,-282L1418,-357L1432,-95Z" fill="#ae6471" stroke="#ae6471" stroke-width="1.51"/><path d="M1228,-314L1418,-357L732,-317Z" fill="#cc8984" stroke="#cc8984" stroke-width="1.51"/><path d="M1493,1245L1775,1200L1661,1009Z" fill="#446fb2" stroke="#446fb2" stroke-width="1.51"/><path d="M1166,1416L1453,1480L1294,1262Z" fill="#6277b8" stroke="#6277b8" stroke-width="1.51"/><path d="M1050,1428L1453,1480L1166,1416Z" fill="#6c7ebc" stroke="#6c7ebc" stroke-width="1.51"/><path d="M203,1514L1453,1480L1050,1428Z" fill="#9290c2" stroke="#9290c2" stroke-width="1.51"/><path d="M1869,719L1966,361L1732,436Z" fill="#9c93b5" stroke="#9c93b5" stroke-width="1.51"/><path d="M1668,37L1788,-282L1432,-95Z" fill="#af6a78" stroke="#af6a78" stroke-width="1.51"/><path d="M1645,1492L1775,1200L1493,1245Z" fill="#3d53a3" stroke="#3d53a3" stroke-width="1.51"/><path d="M1869,719L1912,959L1966,361Z" fill="#868cc4" stroke="#868cc4" stroke-width="1.51"/><path d="M-17,877L56,1270L274,998Z" fill="#bf8a88" stroke="#bf8a88" stroke-width="1.51"/><path d="M-31,218L-197,381L15,396Z" fill="#f7a067" stroke="#f7a067" stroke-width="1.51"/><path d="M-17,877L-188,999L56,1270Z" fill="#ba787d" stroke="#ba787d" stroke-width="1.51"/><path d="M-259,232L-197,381L-31,218Z" fill="#f19159" stroke="#f19159" stroke-width="1.51"/><path d="M1775,1200L1912,959L1661,1009Z" fill="#4d6ab0" stroke="#4d6ab0" stroke-width="1.51"/><path d="M1966,361L1965,284L1732,436Z" fill="#a38da2" stroke="#a38da2" stroke-width="1.51"/><path d="M-3,-325L-98,0L242,-78Z" fill="#ee633d" stroke="#ee633d" stroke-width="1.51"/><path d="M-197,381L-256,762L48,610Z" fill="#f09f87" stroke="#f09f87" stroke-width="1.51"/><path d="M-256,762L-188,999L-17,877Z" fill="#cb8680" stroke="#cb8680" stroke-width="1.51"/><path d="M56,1270L203,1514L297,1156Z" fill="#a6627a" stroke="#a6627a" stroke-width="1.51"/><path d="M555,1431L203,1514L1050,1428Z" fill="#a38da1" stroke="#a38da1" stroke-width="1.51"/><path d="M-76,1401L203,1514L56,1270Z" fill="#a55071" stroke="#a55071" stroke-width="1.51"/><path d="M-197,381L-259,232L-256,762Z" fill="#ec9b70" stroke="#ec9b70" stroke-width="1.51"/><path d="M-98,0L-259,232L-31,218Z" fill="#f0824c" stroke="#f0824c" stroke-width="1.51"/><path d="M1775,1200L1963,1108L1912,959Z" fill="#465ea9" stroke="#465ea9" stroke-width="1.51"/><path d="M1453,1480L1645,1492L1493,1245Z" fill="#475faa" stroke="#475faa" stroke-width="1.51"/><path d="M203,1514L1645,1492L1453,1480Z" fill="#7c87c1" stroke="#7c87c1" stroke-width="1.51"/><path d="M2019,1426L1963,1108L1775,1200Z" fill="#36439c" stroke="#36439c" stroke-width="1.51"/><path d="M1912,959L1963,1108L1966,361Z" fill="#7283be" stroke="#7283be" stroke-width="1.51"/><path d="M2012,38L1788,-282L1668,37Z" fill="#a65071" stroke="#a65071" stroke-width="1.51"/><path d="M2019,1426L2012,38L1966,361Z" fill="#9090c4" stroke="#9090c4" stroke-width="1.51"/><path d="M1966,361L2012,38L1965,284Z" fill="#a57f91" stroke="#a57f91" stroke-width="1.51"/><path d="M1965,284L2012,38L1668,37Z" fill="#a67082" stroke="#a67082" stroke-width="1.51"/><path d="M225,-259L-3,-325L242,-78Z" fill="#eb663d" stroke="#eb663d" stroke-width="1.51"/><path d="M-98,0L-296,-124L-259,232Z" fill="#e4653d" stroke="#e4653d" stroke-width="1.51"/><path d="M429,-337L-3,-325L225,-259Z" fill="#e1673f" stroke="#e1673f" stroke-width="1.51"/><path d="M-210,1353L56,1270L-188,999Z" fill="#a6546d" stroke="#a6546d" stroke-width="1.51"/><path d="M-210,1353L-76,1401L56,1270Z" fill="#9e4067" stroke="#9e4067" stroke-width="1.51"/><path d="M-256,762L-322,1120L-188,999Z" fill="#b57479" stroke="#b57479" stroke-width="1.51"/><path d="M-259,232L-322,1120L-256,762Z" fill="#d58d86" stroke="#d58d86" stroke-width="1.51"/><path d="M-322,1120L-210,1353L-188,999Z" fill="#9f546b" stroke="#9f546b" stroke-width="1.51"/><path d="M-76,1401L-210,1353L203,1514Z" fill="#a1456b" stroke="#a1456b" stroke-width="1.51"/><path d="M-259,232L-296,-124L-322,1120Z" fill="#e59469" stroke="#e59469" stroke-width="1.51"/><path d="M-280,-214L-296,-124L-98,0Z" fill="#dc4631" stroke="#dc4631" stroke-width="1.51"/><path d="M2012,38L1933,-353L1788,-282Z" fill="#9c3b64" stroke="#9c3b64" stroke-width="1.51"/><path d="M1788,-282L1933,-353L1418,-357Z" fill="#954366" stroke="#954366" stroke-width="1.51"/><path d="M-3,-325L-280,-214L-98,0Z" fill="#e0442e" stroke="#e0442e" stroke-width="1.51"/><path d="M1963,1108L2019,1426L1966,361Z" fill="#5870b4" stroke="#5870b4" stroke-width="1.51"/><path d="M1645,1492L2019,1426L1775,1200Z" fill="#333997" stroke="#333997" stroke-width="1.51"/></svg>